<svg aria-hidden="true" style="position: absolute; width: 0; height: 0; overflow: hidden;" version="1.1" xmlns="http://www.w3.org/2000/svg" xmlns:xlink="http://www.w3.org/1999/xlink">
<defs>
<symbol id="icon-access-anywhere" viewBox="0 0 34 32">
<path fill="#62e0d9" style="fill: var(--color1, #62e0d9)" d="M1.016 21.935v-3.275h29.176v3.275h-29.176zM21.216 26.848h1.618v1.448h-14.459v-1.448h1.617c0.269 0 0.486-0.217 0.486-0.485v-3.457h10.252v3.457c0 0.268 0.217 0.485 0.486 0.485zM1.016 17.688v-16.478h29.176v16.478h-29.176zM0.529 0.24c-0.269 0-0.486 0.217-0.486 0.485v21.695c0 0.269 0.217 0.486 0.486 0.486h8.976v2.971h-1.618c-0.269 0-0.486 0.218-0.486 0.486v2.418c0 0.267 0.217 0.486 0.486 0.486h15.432c0.268 0 0.486-0.218 0.486-0.486v-2.419c0-0.267-0.218-0.486-0.486-0.486h-1.618v-2.971h8.976c0.269 0 0.487-0.217 0.487-0.486v-21.694c0-0.269-0.218-0.486-0.486-0.486h-30.149z"></path>
<path fill="#62e0d9" style="fill: var(--color1, #62e0d9)" d="M14.938 19.66c-0.268 0-0.486 0.217-0.486 0.486s0.218 0.486 0.486 0.486 0.486-0.218 0.486-0.486v0c0-0.268-0.218-0.486-0.486-0.486z"></path>
<path fill="#181f2b" style="fill: var(--color2, #181f2b); stroke: var(--color1, #62e0d9)" stroke="#62e0d9" stroke-linejoin="miter" stroke-linecap="butt" stroke-miterlimit="4" stroke-width="0.6732" d="M24.066 9.801h8.491c0.558 0 1.010 0.452 1.010 1.010v19.639c0 0.558-0.452 1.010-1.010 1.010h-8.491c-0.558 0-1.010-0.452-1.010-1.010v-19.639c0-0.558 0.452-1.010 1.010-1.010z"></path>
<path fill="#fff" style="fill: var(--color3, #fff); stroke: var(--color1, #62e0d9)" stroke="#62e0d9" stroke-linejoin="miter" stroke-linecap="butt" stroke-miterlimit="4" stroke-width="0.5982" d="M23.018 12.191h10.586v0.41h-10.586zM23.018 27.727h10.586v0.41h-10.586z"></path>
<path fill="none" stroke="#62e0d9" style="stroke: var(--color1, #62e0d9)" stroke-linejoin="miter" stroke-linecap="butt" stroke-miterlimit="4" stroke-width="0.4144" d="M28.554 29.37c0 0.268-0.218 0.485-0.486 0.485s-0.486-0.217-0.486-0.485c0-0.268 0.218-0.485 0.486-0.485s0.486 0.217 0.486 0.485z"></path>
<path fill="#62e0d9" style="fill: var(--color1, #62e0d9)" d="M18.626 6.551h-0.081l-2.148 0.849-2.432-0.849-2.269 0.769c-0.081 0.040-0.162 0.081-0.162 0.202v6.109c0 0.122 0.081 0.203 0.203 0.203h0.081l2.148-0.85 2.432 0.849 2.269-0.768c0.081-0.041 0.162-0.121 0.162-0.202v-6.109c0-0.121-0.081-0.202-0.203-0.202zM16.397 12.62l-2.432-0.819v-4.642l2.432 0.819v4.642z"></path>
<path fill="#fff" style="fill: var(--color3, #fff)" d="M12.507 6.551c-0.542 0-0.972 0.376-0.972 0.849 0 0.632 0.972 1.578 0.972 1.578s0.973-0.947 0.973-1.578c0-0.473-0.431-0.85-0.972-0.85zM12.507 7.765c-0.209 0-0.374-0.148-0.374-0.337s0.164-0.337 0.374-0.337 0.374 0.148 0.374 0.337c0 0.189-0.165 0.337-0.374 0.337z"></path>
</symbol>
<symbol id="icon-any-file" viewBox="0 0 46 32">
<path fill="none" stroke="#62e0d9" style="stroke: var(--color1, #62e0d9)" stroke-linejoin="round" stroke-linecap="round" stroke-miterlimit="4" stroke-width="0.7025" d="M42.794 29.5c1.218 0 2.206-0.928 2.206-2.073v-22.808c0-0.763-0.659-1.382-1.471-1.382l-0.735 26.264zM7.5 6.024v20.023c0 1.907 1.549 3.453 3.46 3.453h31.834c-0.001 0-0.002 0-0.002 0-1.144 0-2.072-0.927-2.074-2.071v-25.548c-0.001-0.763-0.62-1.381-1.383-1.381-0 0-0.001 0-0.001 0h-8.305l-2.768 4.143h-19.377c-0 0-0.001 0-0.001 0-0.763 0-1.382 0.618-1.383 1.381v0z"></path>
<path fill="#62e0d9" style="fill: var(--color1, #62e0d9)" d="M20.64 13.78v1.601c0 0.53 0.421 0.96 0.94 0.96h1.565zM24.398 16.341v-0.11c0-0.339-0.132-0.665-0.367-0.905l-2.397-2.451c-0.225-0.231-0.539-0.374-0.886-0.375h-6.995c-0.693 0-1.252 0.573-1.252 1.28v13.445c0 0.707 0.56 1.28 1.252 1.28h9.393c0.692 0 1.253-0.573 1.253-1.28v-4.482z"></path>
<path fill="none" stroke="#fff" style="stroke: var(--color3, #fff)" stroke-linejoin="round" stroke-linecap="butt" stroke-miterlimit="4" stroke-width="0.4015" d="M16.883 24.665v1.92h1.878l5.949-6.082-1.878-1.921-5.949 6.082zM24.71 20.503l0.664-0.679c0.17-0.175 0.275-0.415 0.275-0.679s-0.105-0.504-0.276-0.68l0 0-0.55-0.562c-0.168-0.174-0.404-0.281-0.664-0.281s-0.496 0.108-0.664 0.281l-0 0-0.664 0.679 1.878 1.921z"></path>
<path fill="#62e0d9" style="fill: var(--color1, #62e0d9)" d="M16.183 29.716c0 0.986-0.805 1.786-1.798 1.786h-12.588c-0.993 0-1.798-0.8-1.798-1.786v-8.93c0-0.986 0.805-1.786 1.798-1.786h12.588c0.992 0 1.798 0.8 1.798 1.786v8.93zM5.394 22.275c-0.003 0.822-0.671 1.488-1.494 1.488-0.002 0-0.004 0-0.005 0h0c-0.002 0-0.003 0-0.005 0-0.823 0-1.49-0.666-1.494-1.488v-0c0.003-0.823 0.67-1.488 1.494-1.488 0.002 0 0.004 0 0.005 0h-0c0.002 0 0.003 0 0.005 0 0.823 0 1.491 0.666 1.494 1.488v0z"></path>
</symbol>
<symbol id="icon-arrow" viewBox="0 0 32 32">
<path fill="#000" style="fill: var(--color4, #000)" d="M28 16c0 6.627-5.373 12-12 12s-12-5.373-12-12c0-6.627 5.373-12 12-12s12 5.373 12 12z"></path>
<path  d="M28 16c0 6.627-5.373 12-12 12s-12-5.373-12-12c0-6.627 5.373-12 12-12s12 5.373 12 12z"></path>
<path fill="#1b2330" style="fill: var(--color5, #1b2330)" d="M17.164 12l-0.726 0.7 2.904 2.8h-8.676v1h8.676l-2.902 2.8 0.726 0.7 4.148-4z"></path>
</symbol>
<symbol id="icon-collaboration" viewBox="0 0 39 32">
<path fill="none" stroke="#62e0d9" style="stroke: var(--color1, #62e0d9)" stroke-linejoin="round" stroke-linecap="round" stroke-miterlimit="4" stroke-width="0.5859" d="M15.278 5.11v0zM15.278 23.387v0zM24.431 15.162v0zM6.123 15.162h0zM14.82 18.817h-0c0.001 0 0.002 0 0.003 0 0.378 0 0.721-0.153 0.969-0.401l13.273-13.251-1.943-1.938-12.302 12.282-4.924-4.915-1.942 1.938 5.895 5.885c0.267 0.268 0.619 0.401 0.97 0.401zM25.255 5.108l1.666 2.198c1.323 2.153 2.087 4.687 2.087 7.399 0 7.822-6.353 14.165-14.189 14.165s-14.189-6.342-14.189-14.165c0-7.822 6.353-14.164 14.188-14.164 4.128 0 7.844 1.76 10.436 4.567zM23.301 7.038c-2.098-2.311-5.114-3.756-8.468-3.756-0.005 0-0.010 0-0.015 0h0.001c-6.32 0-11.442 5.114-11.442 11.423s5.123 11.423 11.442 11.423 11.442-5.114 11.442-11.423c0-1.951-0.49-3.787-1.353-5.393l-1.607-2.274z"></path>
<path fill="none" stroke="#62e0d9" style="stroke: var(--color1, #62e0d9)" stroke-linejoin="round" stroke-linecap="butt" stroke-miterlimit="4" stroke-width="0.5859" d="M24.955 18.246c0 1.118-0.908 2.024-2.027 2.024-0 0-0.001 0-0.001 0-1.118 0-2.024-0.906-2.025-2.024v-0c0-1.118 0.908-2.024 2.027-2.024 0.001 0 0.001 0 0.002 0 1.118 0 2.024 0.906 2.025 2.024v0z"></path>
<path fill="none" stroke="#62e0d9" style="stroke: var(--color1, #62e0d9)" stroke-linejoin="round" stroke-linecap="round" stroke-miterlimit="4" stroke-width="0.5859" d="M22.927 20.27c-0.855 0-1.628 0.263-2.181 0.52-0.512 0.247-0.86 0.763-0.86 1.36 0 0.003 0 0.005 0 0.008v-0 3.172c0.001 0.559 0.454 1.012 1.013 1.012 0 0 0 0 0 0h-0v4.047c0 0.559 0.454 1.012 1.013 1.012 0 0 0.001 0 0.001 0h2.027c0 0 0.001 0 0.001 0 0.559 0 1.012-0.453 1.013-1.012v-4.047c0 0 0 0 0 0 0.559 0 1.012-0.453 1.013-1.011v-3.172c0-0.002 0-0.005 0-0.007 0-0.597-0.347-1.112-0.851-1.356l-0.009-0.004c-0.553-0.257-1.325-0.52-2.181-0.52z"></path>
<path fill="none" stroke="#62e0d9" style="stroke: var(--color1, #62e0d9)" stroke-linejoin="round" stroke-linecap="butt" stroke-miterlimit="4" stroke-width="0.5859" d="M31.035 18.246c0 1.118-0.908 2.024-2.027 2.024-0.001 0-0.001 0-0.002 0-1.118 0-2.024-0.906-2.025-2.024v-0c0-1.118 0.908-2.024 2.027-2.024 0.001 0 0.001 0 0.002 0 1.118 0 2.024 0.906 2.025 2.024v0z"></path>
<path fill="none" stroke="#62e0d9" style="stroke: var(--color1, #62e0d9)" stroke-linejoin="round" stroke-linecap="round" stroke-miterlimit="4" stroke-width="0.5859" d="M29.008 20.27c-0.855 0-1.628 0.263-2.181 0.52-0.512 0.247-0.86 0.763-0.86 1.36 0 0.003 0 0.005 0 0.008v-0 3.172c0 0.559 0.454 1.012 1.013 1.012 0 0 0.001 0 0.001 0h-0v4.047c0.001 0.559 0.454 1.012 1.013 1.012 0 0 0 0 0 0h2.027c0 0 0 0 0 0 0.559 0 1.012-0.453 1.013-1.012v-4.047c0 0 0.001 0 0.001 0 0.559 0 1.012-0.453 1.013-1.011v-3.172c0-0.002 0-0.005 0-0.007 0-0.597-0.347-1.113-0.851-1.356l-0.009-0.004c-0.553-0.257-1.326-0.52-2.181-0.52z"></path>
<path fill="none" stroke="#62e0d9" style="stroke: var(--color1, #62e0d9)" stroke-linejoin="round" stroke-linecap="butt" stroke-miterlimit="4" stroke-width="0.5859" d="M37.116 18.246c0 1.118-0.907 2.024-2.027 2.024-0.001 0-0.001 0-0.002 0-1.118 0-2.024-0.906-2.025-2.024v-0c0-1.118 0.907-2.024 2.027-2.024 0.001 0 0.001 0 0.002 0 1.118 0 2.024 0.906 2.025 2.024v0z"></path>
<path fill="none" stroke="#62e0d9" style="stroke: var(--color1, #62e0d9)" stroke-linejoin="round" stroke-linecap="round" stroke-miterlimit="4" stroke-width="0.5859" d="M35.089 20.27c-0.855 0-1.628 0.263-2.181 0.52-0.512 0.247-0.859 0.763-0.859 1.36 0 0.003 0 0.005 0 0.008v-0 3.172c0.001 0.559 0.454 1.012 1.013 1.012 0 0 0.001 0 0.001 0h-0v4.047c0.001 0.559 0.454 1.012 1.013 1.012 0 0 0 0 0 0h2.027c0 0 0 0 0 0 0.559 0 1.012-0.453 1.013-1.012v-4.047c0 0 0.001 0 0.001 0 0.559 0 1.012-0.453 1.013-1.011v-3.172c0-0.002 0-0.005 0-0.007 0-0.597-0.347-1.112-0.851-1.356l-0.009-0.004c-0.553-0.257-1.326-0.52-2.181-0.52z"></path>
</symbol>
<symbol id="icon-email" viewBox="0 0 40 32">
<path fill="#fff" style="fill: var(--color3, #fff)" d="M36 0h-32c-2.2 0-4 1.8-4 4v24c0 2.2 1.8 4 4 4h32c2.2 0 4-1.8 4-4v-24c0-2.2-1.8-4-4-4zM36 28h-4v-17.6l-12 7.6-12-7.6v17.6h-4v-24h2.4l13.6 8.4 13.6-8.4h2.4v24z"></path>
</symbol>

<symbol id="icon-location" viewBox="0 0 32 32">
<path d="M16 0c-5.523 0-10 4.477-10 10 0 10 10 22 10 22s10-12 10-22c0-5.523-4.477-10-10-10zM16 16.125c-3.383 0-6.125-2.742-6.125-6.125s2.742-6.125 6.125-6.125 6.125 2.742 6.125 6.125-2.742 6.125-6.125 6.125zM12.125 10c0-2.14 1.735-3.875 3.875-3.875s3.875 1.735 3.875 3.875c0 2.14-1.735 3.875-3.875 3.875s-3.875-1.735-3.875-3.875z"></path>
</symbol>

<symbol id="icon-phone" viewBox="0 0 32 32">
<path fill="#fff" style="fill: var(--color3, #fff)" d="M30.222 22.222c-2.133 0-4.267-0.356-6.4-1.067-0.533-0.178-1.244 0-1.778 0.356l-3.911 3.911c-4.978-2.489-9.067-6.756-11.733-11.733l3.911-3.911c0.533-0.533 0.711-1.244 0.356-1.778-0.533-1.956-0.889-4.089-0.889-6.222 0-1.067-0.711-1.778-1.778-1.778h-6.222c-1.067 0-1.778 0.711-1.778 1.778 0 16.711 13.511 30.222 30.222 30.222 1.067 0 1.778-0.711 1.778-1.778v-6.222c0-1.067-0.711-1.778-1.778-1.778zM28.444 16h3.556c0-8.889-7.111-16-16-16v3.556c6.933 0 12.444 5.511 12.444 12.444zM21.333 16h3.556c0-4.978-3.911-8.889-8.889-8.889v3.556c3.022 0 5.333 2.311 5.333 5.333z"></path>
</symbol>
<symbol id="icon-security" viewBox="0 0 25 32">
<path fill="none" stroke="#62e0d9" style="stroke: var(--color1, #62e0d9)" stroke-linejoin="miter" stroke-linecap="butt" stroke-miterlimit="4" stroke-width="1.1142" d="M15.892 12.909l-4.447 4.536-3.272-3.337-1.636 1.669 4.908 5.006 7.494-7.642-1.636-1.669z"></path>
<path fill="none" stroke="#62e0d9" style="stroke: var(--color1, #62e0d9)" stroke-linejoin="miter" stroke-linecap="butt" stroke-miterlimit="4" stroke-width="1.1142" d="M20.697 3.582c-1.943 0-3.874-0.413-5.63-1.267-0.841-0.405-1.701-0.921-2.445-1.564-0.744 0.643-1.604 1.16-2.445 1.564-1.756 0.854-3.687 1.267-5.629 1.267h-3.851v14.76c0 2.585 1.024 5.071 2.846 6.87 2.675 2.636 9.080 6.063 9.080 6.063s6.404-3.427 9.079-6.063c1.822-1.799 2.846-4.285 2.846-6.87v-14.76h-3.851z"></path>
<path fill="none" stroke="#62e0d9" style="stroke: var(--color1, #62e0d9)" stroke-linejoin="miter" stroke-linecap="butt" stroke-miterlimit="4" stroke-width="1.1142" d="M21.433 8.921v9.545c0 1.724-0.692 3.396-1.898 4.587-1.677 1.653-5.501 3.916-6.913 4.727-1.413-0.812-5.24-3.077-6.915-4.729-1.205-1.19-1.896-2.861-1.896-4.586v-11.583h0.736c2.439 0 4.849-0.545 6.97-1.576 0.465-0.223 0.827-0.418 1.181-0.627l-0.075 0.041c0.353 0.205 0.727 0.404 1.114 0.59 2.114 1.028 4.521 1.571 6.96 1.571h0.736v2.038z"></path>
</symbol>
<symbol id="icon-logo" viewBox="0 0 108 32">
<path fill="#fff" style="fill: var(--color3, #fff)" d="M0 10.075v0.079l18.31 8.47 18.375-8.499v-0.022l-18.375-8.498-18.31 8.47zM6.601 10.114l11.71-5.417 11.711 5.417-11.711 5.416-11.709-5.416zM18.31 21.914l-18.31-8.343v3.086l18.31 8.363 18.375-8.391v-3.086l-18.375 8.372zM18.31 28.172l-18.31-8.345v3.086l18.31 8.364 18.375-8.391v-3.086l-18.375 8.372zM104.133 16.135c0-0.012 0-0.027 0-0.042 0-1.386-0.535-2.647-1.409-3.587l0.003 0.003c-0.422-0.451-0.927-0.818-1.492-1.076l-0.029-0.012c-0.538-0.247-1.166-0.391-1.829-0.391-0.009 0-0.019 0-0.028 0h0.001c-0.008-0-0.017-0-0.027-0-0.662 0-1.291 0.144-1.857 0.403l0.028-0.011c-0.595 0.27-1.1 0.637-1.519 1.085l-0.002 0.003c-0.871 0.938-1.406 2.198-1.406 3.584 0 0.015 0 0.030 0 0.044v-0.002c-0 0.013-0 0.027-0 0.042 0 1.386 0.535 2.647 1.409 3.587l-0.003-0.003c0.422 0.451 0.927 0.817 1.492 1.075l0.030 0.012c0.538 0.248 1.167 0.392 1.83 0.392 0.009 0 0.018-0 0.027-0h-0.001c0.008 0 0.016 0 0.025 0 0.663 0 1.292-0.144 1.858-0.404l-0.028 0.011c0.595-0.27 1.1-0.637 1.519-1.085l0.002-0.003c0.871-0.937 1.406-2.198 1.406-3.584 0-0.015-0-0.030-0-0.045v0.002zM108.308 16.135c0 1.258-0.232 2.423-0.695 3.496-0.469 1.086-1.115 2.012-1.912 2.783l-0.002 0.002c-0.812 0.783-1.764 1.402-2.855 1.857s-2.257 0.682-3.494 0.682-2.396-0.228-3.479-0.682c-1.102-0.463-2.044-1.094-2.843-1.873l0.002 0.002c-0.796-0.78-1.442-1.709-1.892-2.744l-0.022-0.056c-0.463-1.073-0.695-2.229-0.695-3.466 0-1.218 0.237-2.364 0.71-3.438 0.484-1.093 1.133-2.026 1.927-2.813l0.001-0.001c0.795-0.785 1.738-1.421 2.783-1.864l0.058-0.022c1.082-0.455 2.232-0.682 3.45-0.682 1.237 0 2.401 0.227 3.494 0.682s2.044 1.073 2.855 1.857c0.812 0.783 1.45 1.716 1.914 2.799s0.695 2.243 0.695 3.481zM88.971 24.433c-0.318 0.151-0.691 0.281-1.079 0.37l-0.038 0.007c-0.383 0.092-0.823 0.145-1.275 0.145-0.005 0-0.010 0-0.015-0h0.001c-0.618 0-1.213-0.082-1.783-0.246-0.577-0.164-1.077-0.439-1.498-0.802l0.005 0.004c-0.425-0.367-0.763-0.846-1.015-1.436s-0.377-1.3-0.377-2.132v-19.901h4.262v19.175c0 0.697 0.14 1.175 0.42 1.436s0.614 0.392 1 0.392c0.484 0 0.948-0.145 1.392-0.435v3.423zM80.012 7.723l-7.538 19.93c-0.56 1.489-1.295 2.562-2.203 3.22s-1.991 0.986-3.247 0.986c-0.226-0.002-0.447-0.017-0.664-0.047l0.027 0.003c-0.255-0.032-0.481-0.077-0.7-0.138l0.034 0.008-1.392-3.887c0.288 0.14 0.626 0.264 0.977 0.355l0.038 0.008c0.295 0.079 0.633 0.127 0.983 0.13h0.002c0.658 0 1.257-0.15 1.798-0.449s0.956-0.856 1.246-1.668l0.58-1.682-6.465-16.768h4.551l3.856 10.791 3.624-10.791h4.494zM62.473 5.199h-10.9v5.396h10.756v3.655h-10.756v10.27h-4.406v-23.179h15.306v3.858z"></path>
</symbol>

<symbol id="icon-facebook" viewBox="0 0 32 32">
<path d="M19 6h5v-6h-5c-3.86 0-7 3.14-7 7v3h-4v6h4v16h6v-16h5l1-6h-6v-3c0-0.542 0.458-1 1-1z"></path>
</symbol>
<symbol id="icon-instagram" viewBox="0 0 32 32">
<path d="M16 2.881c4.275 0 4.781 0.019 6.462 0.094 1.563 0.069 2.406 0.331 2.969 0.55 0.744 0.288 1.281 0.638 1.837 1.194 0.563 0.563 0.906 1.094 1.2 1.838 0.219 0.563 0.481 1.412 0.55 2.969 0.075 1.688 0.094 2.194 0.094 6.463s-0.019 4.781-0.094 6.463c-0.069 1.563-0.331 2.406-0.55 2.969-0.288 0.744-0.637 1.281-1.194 1.837-0.563 0.563-1.094 0.906-1.837 1.2-0.563 0.219-1.413 0.481-2.969 0.55-1.688 0.075-2.194 0.094-6.463 0.094s-4.781-0.019-6.463-0.094c-1.563-0.069-2.406-0.331-2.969-0.55-0.744-0.288-1.281-0.637-1.838-1.194-0.563-0.563-0.906-1.094-1.2-1.837-0.219-0.563-0.481-1.413-0.55-2.969-0.075-1.688-0.094-2.194-0.094-6.463s0.019-4.781 0.094-6.463c0.069-1.563 0.331-2.406 0.55-2.969 0.288-0.744 0.638-1.281 1.194-1.838 0.563-0.563 1.094-0.906 1.838-1.2 0.563-0.219 1.412-0.481 2.969-0.55 1.681-0.075 2.188-0.094 6.463-0.094zM16 0c-4.344 0-4.887 0.019-6.594 0.094-1.7 0.075-2.869 0.35-3.881 0.744-1.056 0.412-1.95 0.956-2.837 1.85-0.894 0.888-1.438 1.781-1.85 2.831-0.394 1.019-0.669 2.181-0.744 3.881-0.075 1.713-0.094 2.256-0.094 6.6s0.019 4.887 0.094 6.594c0.075 1.7 0.35 2.869 0.744 3.881 0.413 1.056 0.956 1.95 1.85 2.837 0.887 0.887 1.781 1.438 2.831 1.844 1.019 0.394 2.181 0.669 3.881 0.744 1.706 0.075 2.25 0.094 6.594 0.094s4.888-0.019 6.594-0.094c1.7-0.075 2.869-0.35 3.881-0.744 1.050-0.406 1.944-0.956 2.831-1.844s1.438-1.781 1.844-2.831c0.394-1.019 0.669-2.181 0.744-3.881 0.075-1.706 0.094-2.25 0.094-6.594s-0.019-4.887-0.094-6.594c-0.075-1.7-0.35-2.869-0.744-3.881-0.394-1.063-0.938-1.956-1.831-2.844-0.887-0.887-1.781-1.438-2.831-1.844-1.019-0.394-2.181-0.669-3.881-0.744-1.712-0.081-2.256-0.1-6.6-0.1v0z"></path>
<path d="M16 7.781c-4.537 0-8.219 3.681-8.219 8.219s3.681 8.219 8.219 8.219 8.219-3.681 8.219-8.219c0-4.537-3.681-8.219-8.219-8.219zM16 21.331c-2.944 0-5.331-2.387-5.331-5.331s2.387-5.331 5.331-5.331c2.944 0 5.331 2.387 5.331 5.331s-2.387 5.331-5.331 5.331z"></path>
<path d="M26.462 7.456c0 1.060-0.859 1.919-1.919 1.919s-1.919-0.859-1.919-1.919c0-1.060 0.859-1.919 1.919-1.919s1.919 0.859 1.919 1.919z"></path>
</symbol>
<symbol id="icon-twitter" viewBox="0 0 32 32">
<path d="M32 7.075c-1.175 0.525-2.444 0.875-3.769 1.031 1.356-0.813 2.394-2.1 2.887-3.631-1.269 0.75-2.675 1.3-4.169 1.594-1.2-1.275-2.906-2.069-4.794-2.069-3.625 0-6.563 2.938-6.563 6.563 0 0.512 0.056 1.012 0.169 1.494-5.456-0.275-10.294-2.888-13.531-6.862-0.563 0.969-0.887 2.1-0.887 3.3 0 2.275 1.156 4.287 2.919 5.463-1.075-0.031-2.087-0.331-2.975-0.819 0 0.025 0 0.056 0 0.081 0 3.181 2.263 5.838 5.269 6.437-0.55 0.15-1.131 0.231-1.731 0.231-0.425 0-0.831-0.044-1.237-0.119 0.838 2.606 3.263 4.506 6.131 4.563-2.25 1.762-5.075 2.813-8.156 2.813-0.531 0-1.050-0.031-1.569-0.094 2.913 1.869 6.362 2.95 10.069 2.95 12.075 0 18.681-10.006 18.681-18.681 0-0.287-0.006-0.569-0.019-0.85 1.281-0.919 2.394-2.075 3.275-3.394z"></path>
</symbol>
</defs>
</svg>
